# xmcd
#
# Track frame offsets:
# 150
# 13875
# 24365
# 41352
# 57590
# 70867
# 87632
# 104887
# 114867
# 125980
# 138382
# 154367
# 169462
# 181017
# 202437
#
# Disc length: 3022 seconds
#
#
# Revision: 0
# Processed by: cddbd v1.5.2PL0 Copyright (c) Steve Scherf et al.
# Submitted via: FreeRIP 2.951 
#
DISCID=e60bcc0f
DTITLE=103rd Street Gospel Choir - Gospel Party 3
DYEAR=2000
DGENRE=Gospel
TTITLE0=Blowin' in the wind
TTITLE1=Get on board (Gospel Train)
TTITLE2=Stand by me
TTITLE3=What child is this?
TTITLE4=Twelve Gates to the city
TTITLE5=Let my people go
TTITLE6=People get ready
TTITLE7=The Battle of Jericho
TTITLE8=Joy to the world
TTITLE9=This may be the last time
TTITLE10=Oh come let us adore him
TTITLE11=The old rugged cross
TTITLE12=Burying Ground
TTITLE13=Nobody knows
TTITLE14=We are the world (U.S.A Gospel Choire feat. Joan Orleans)
EXTD=
EXTT0=
EXTT1=
EXTT2=
EXTT3=
EXTT4=
EXTT5=
EXTT6=
EXTT7=
EXTT8=
EXTT9=
EXTT10=
EXTT11=
EXTT12=
EXTT13=
EXTT14=
PLAYORDER=
